<?xml version="1.0" standalone="no"?>
<!DOCTYPE svg PUBLIC "-//W3C//DTD SVG 20010904//EN"
 "http://www.w3.org/TR/2001/REC-SVG-20010904/DTD/svg10.dtd">
<svg version="1.0" xmlns="http://www.w3.org/2000/svg"
 width="224.000000pt" height="224.000000pt" viewBox="0 0 224.000000 224.000000"
 preserveAspectRatio="xMidYMid meet">
<metadata>
Created by potrace 1.16, written by Peter Selinger 2001-2019
</metadata>
<g transform="translate(0.000000,224.000000) scale(0.100000,-0.100000)"
fill="#ffffff" stroke="none">
<path d="M1718 1773 c-76 -19 -138 -39 -138 -44 0 -5 9 -9 19 -9 29 0 51 -11
51 -25 0 -7 -12 -38 -26 -69 -14 -32 -24 -60 -21 -63 6 -5 269 223 275 238 5
13 -10 11 -160 -28z"/>
<path d="M1096 1684 c-155 -38 -419 -254 -495 -406 -48 -95 -41 -179 21 -234
40 -37 85 -54 140 -54 75 0 135 38 249 158 l94 99 1 -76 c1 -122 45 -181 134
-181 59 0 100 17 175 72 95 70 265 282 265 330 0 10 -2 18 -5 18 -3 0 -58 -53
-123 -118 -128 -128 -237 -208 -271 -197 -41 13 -39 93 6 219 31 88 69 155
128 226 54 66 60 107 19 139 -33 26 -65 27 -95 2 -22 -18 -24 -18 -63 0 -48
22 -99 23 -180 3z m158 -96 c-4 -7 -71 -87 -149 -178 -154 -179 -280 -303
-339 -335 -37 -20 -38 -20 -52 -1 -19 26 -18 45 7 111 56 149 258 343 413 397
61 21 131 24 120 6z"/>
</g>
</svg>
