<?xml version="1.0" encoding="utf-8"?>
<!-- Generator: Adobe Illustrator 19.2.1, SVG Export Plug-In . SVG Version: 6.00 Build 0)  -->
<svg version="1.1" id="layer" xmlns="http://www.w3.org/2000/svg" xmlns:xlink="http://www.w3.org/1999/xlink" x="0px" y="0px"
	 viewBox="0 0 652 652" style="enable-background:new 0 0 652 652;" xml:space="preserve">
<style type="text/css">
	.st0{fill:#E50012;}
	.st1{fill:#717071;}
</style>
<g>
	<path class="st0" d="M78.1,271.8c0,0-1-12-1.2-16.9c-0.1-4.6-0.2-10.8-0.2-10.8s1.8-0.2,3.4,0.1c1.3,0.3,2.7,0.8,2.7,0.8
		s-0.9,7.6-1.6,12.3C80.1,264.6,78.1,271.8,78.1,271.8"/>
	<path class="st0" d="M67.8,271.8c0,0,1-12,1.2-16.9c0.1-4.6,0.2-10.8,0.2-10.8s-1.8-0.2-3.4,0.1c-1.3,0.3-2.7,0.8-2.7,0.8
		s0.9,7.6,1.6,12.3C65.7,264.6,67.8,271.8,67.8,271.8"/>
	<path class="st0" d="M73.7,243.6L73.7,243.6L73.7,243.6c-0.3,0-0.5,0-0.8,0c-0.3,0-0.6,0-0.8,0h0c-1.6,0.1-2.2,0.5-2.2,0.5
		s0.4,7.9,0.7,11.3c0.3,3.4,2.3,16.4,2.3,16.4s2.1-13,2.3-16.4c0.3-3.4,0.7-11.3,0.7-11.3S75.3,243.7,73.7,243.6"/>
	<path class="st0" d="M63.1,273.7c0,0-9.2-7.7-12.7-11.1c-3.4-3.2-7.8-7.5-7.8-7.5s1.1-1.4,2.5-2.3c1.1-0.8,2.5-1.3,2.5-1.3
		s4.7,6,7.6,9.8C59.5,267.1,63.1,273.7,63.1,273.7"/>
	<path class="st0" d="M55.9,281c0,0-7.7-9.2-11.1-12.7c-3.2-3.4-7.5-7.8-7.5-7.8s-1.4,1.1-2.3,2.4c-0.8,1.1-1.3,2.5-1.3,2.5
		s6,4.7,9.8,7.6C49.3,277.4,55.9,281,55.9,281"/>
	<path class="st0" d="M40.1,256.8L40.1,256.8L40.1,256.8c-0.2,0.2-0.4,0.4-0.6,0.6c-0.2,0.2-0.4,0.4-0.6,0.6l0,0
		c-1.1,1.2-1.2,1.9-1.2,1.9s5.9,5.3,8.5,7.5c2.6,2.2,13.2,9.9,13.2,9.9s-7.7-10.6-9.9-13.2c-2.2-2.6-7.5-8.5-7.5-8.5
		S41.4,255.8,40.1,256.8"/>
	<path class="st0" d="M53.9,285.6c0,0-12,1-16.9,1.2c-4.6,0.1-10.8,0.2-10.8,0.2s-0.2-1.8,0.1-3.4c0.2-1.3,0.8-2.7,0.8-2.7
		s7.6,0.9,12.3,1.6C46.7,283.5,53.9,285.6,53.9,285.6"/>
	<path class="st0" d="M53.9,295.9c0,0-12-1-16.9-1.2c-4.6-0.1-10.8-0.2-10.8-0.2s-0.2,1.8,0.1,3.4c0.2,1.3,0.8,2.7,0.8,2.7
		s7.6-0.9,12.3-1.6C46.7,298,53.9,295.9,53.9,295.9"/>
	<path class="st0" d="M25.7,289.9L25.7,289.9L25.7,289.9c0,0.3,0,0.5,0,0.8v0c0,0.3,0,0.6,0,0.8v0c0.1,1.6,0.5,2.2,0.5,2.2
		s7.9-0.4,11.3-0.7c3.4-0.3,16.4-2.3,16.4-2.3s-13-2.1-16.4-2.3c-3.4-0.3-11.3-0.7-11.3-0.7S25.8,288.3,25.7,289.9"/>
	<path class="st0" d="M55.9,300.5c0,0-7.7,9.2-11.1,12.7c-3.2,3.4-7.5,7.8-7.5,7.8s-1.4-1.1-2.3-2.4c-0.8-1.1-1.3-2.5-1.3-2.5
		s6-4.7,9.8-7.6C49.3,304.2,55.9,300.5,55.9,300.5"/>
	<path class="st0" d="M63.1,307.8c0,0-9.2,7.7-12.7,11.1c-3.4,3.2-7.8,7.5-7.8,7.5s1.1,1.4,2.5,2.3c1.1,0.8,2.5,1.3,2.5,1.3
		s4.7-6,7.6-9.8C59.5,314.4,63.1,307.8,63.1,307.8"/>
	<path class="st0" d="M39,323.5L39,323.5L39,323.5c0.2,0.2,0.4,0.4,0.6,0.6c0.2,0.2,0.4,0.4,0.6,0.6l0,0c1.2,1.1,1.9,1.2,1.9,1.2
		s5.3-5.9,7.5-8.5s9.9-13.2,9.9-13.2s-10.6,7.7-13.2,9.9c-2.6,2.2-8.5,7.5-8.5,7.5S37.9,322.3,39,323.5"/>
	<path class="st0" d="M67.8,309.7c0,0,1,12,1.2,16.9c0.1,4.6,0.2,10.8,0.2,10.8s-1.8,0.2-3.4-0.1c-1.3-0.3-2.7-0.8-2.7-0.8
		s0.9-7.6,1.6-12.3C65.7,317,67.8,309.7,67.8,309.7"/>
	<path class="st0" d="M78.1,309.7c0,0-1,12-1.2,16.9c-0.1,4.6-0.2,10.8-0.2,10.8s1.8,0.2,3.4-0.1c1.3-0.3,2.7-0.8,2.7-0.8
		s-0.9-7.6-1.6-12.3C80.1,317,78.1,309.7,78.1,309.7"/>
	<path class="st0" d="M72.1,337.9L72.1,337.9L72.1,337.9c0.3,0,0.5,0,0.8,0h0c0.3,0,0.6,0,0.8,0h0c1.6-0.1,2.2-0.5,2.2-0.5
		s-0.4-7.9-0.7-11.3c-0.3-3.4-2.3-16.4-2.3-16.4s-2.1,13-2.3,16.4c-0.3,3.4-0.7,11.3-0.7,11.3S70.5,337.8,72.1,337.9"/>
	<path class="st0" d="M82.7,307.8c0,0,9.2,7.7,12.7,11.1c3.4,3.2,7.8,7.5,7.8,7.5s-1.1,1.4-2.5,2.3c-1.1,0.8-2.5,1.3-2.5,1.3
		s-4.7-6-7.6-9.8C86.3,314.4,82.7,307.8,82.7,307.8"/>
	<path class="st0" d="M90,300.6c0,0,7.7,9.2,11.1,12.7c3.2,3.4,7.5,7.8,7.5,7.8s1.4-1.1,2.3-2.4c0.8-1.1,1.3-2.5,1.3-2.5
		s-6-4.7-9.8-7.6C96.6,304.2,90,300.6,90,300.6"/>
	<path class="st0" d="M105.7,324.7L105.7,324.7L105.7,324.7c0.2-0.2,0.4-0.4,0.6-0.6c0.2-0.2,0.4-0.4,0.6-0.6l0,0
		c1.1-1.2,1.2-1.9,1.2-1.9s-5.9-5.3-8.5-7.5c-2.6-2.2-13.2-9.9-13.2-9.9s7.7,10.6,9.9,13.2c2.2,2.6,7.5,8.5,7.5,8.5
		S104.5,325.8,105.7,324.7"/>
	<path class="st0" d="M91.9,295.9c0,0,12-1,16.9-1.2c4.6-0.1,10.8-0.2,10.8-0.2s0.2,1.8-0.1,3.4c-0.2,1.3-0.8,2.7-0.8,2.7
		s-7.6-0.9-12.3-1.6C99.1,298,91.9,295.9,91.9,295.9"/>
	<path class="st0" d="M91.9,285.6c0,0,12,1,16.9,1.2c4.6,0.1,10.8,0.2,10.8,0.2s0.2-1.8-0.1-3.4c-0.2-1.3-0.8-2.7-0.8-2.7
		s-7.6,0.9-12.3,1.6C99.1,283.5,91.9,285.6,91.9,285.6"/>
	<path class="st0" d="M120.1,291.6L120.1,291.6L120.1,291.6c0-0.3,0-0.5,0-0.8v0c0-0.3,0-0.6,0-0.8v0c-0.1-1.6-0.5-2.2-0.5-2.2
		s-7.9,0.4-11.3,0.7c-3.4,0.3-16.4,2.3-16.4,2.3s13,2.1,16.4,2.3c3.4,0.3,11.3,0.7,11.3,0.7S120,293.2,120.1,291.6"/>
	<path class="st0" d="M90,281c0,0,7.7-9.2,11.1-12.7c3.2-3.4,7.5-7.8,7.5-7.8s1.4,1.1,2.3,2.4c0.8,1.1,1.3,2.5,1.3,2.5
		s-6,4.7-9.8,7.6C96.6,277.4,90,281,90,281"/>
	<path class="st0" d="M82.7,273.7c0,0,9.2-7.7,12.7-11.1c3.4-3.2,7.8-7.5,7.8-7.5s-1.1-1.4-2.5-2.3c-1.1-0.8-2.5-1.3-2.5-1.3
		s-4.7,6-7.6,9.8C86.3,267.1,82.7,273.7,82.7,273.7"/>
	<path class="st0" d="M106.8,258L106.8,258L106.8,258c-0.2-0.2-0.4-0.4-0.6-0.6c-0.2-0.2-0.4-0.4-0.6-0.6l0,0
		c-1.2-1.1-1.9-1.2-1.9-1.2s-5.3,5.9-7.5,8.5c-2.2,2.6-9.9,13.2-9.9,13.2s10.6-7.7,13.2-9.9c2.6-2.2,8.5-7.5,8.5-7.5
		S107.9,259.2,106.8,258"/>
	<path class="st1" d="M159.8,323c-16.3,0-19.3-9.6-18.6-20.5h13.1c0,6,0.3,11.1,7.5,11.1c4.4,0,6.6-2.9,6.6-7.1
		c0-11.3-26.5-12-26.5-30.7c0-9.8,4.7-17.7,20.7-17.7c12.8,0,19.1,5.7,18.3,18.9h-12.8c0-4.7-0.8-9.5-6.1-9.5
		c-4.3,0-6.8,2.4-6.8,6.7c0,11.9,26.5,10.9,26.5,30.6C181.7,321.1,169.8,323,159.8,323"/>
</g>
<polygon class="st1" points="225.6,259.2 225.6,269.6 210.9,269.6 210.9,322 197.8,322 197.8,269.6 183.2,269.6 183.2,259.2 "/>
<polygon class="st1" points="246.6,322 246.6,259.2 280.9,259.2 280.9,268.8 259.8,268.8 259.8,284.3 279.2,284.3 279.2,294 
	259.8,294 259.8,312.3 281.6,312.3 281.6,322 "/>
<g>
	<path class="st1" d="M298.7,282.5h0.2c2.4-3.9,5.7-5.3,10.4-5.3c5.8,0,11,3.5,11,9.6V322h-12.3v-30.3c0-3.9-0.7-7-4.6-7
		c-3.9,0-4.6,3-4.6,7V322h-12.3V278h12.3V282.5z"/>
	<path class="st1" d="M342.8,313.8c4.4,0,5.1-4.6,5.1-13.9c0-9.7-0.4-15.1-5-15.1c-4.6,0-5.4,3.2-5.4,16.6
		C337.5,305.5,336.9,313.8,342.8,313.8 M360.1,278v45.8c0,3,0.2,15.1-16.7,15.1c-9.1,0-17-2.3-17.2-13.1h12c0,1.8,0.3,3.4,1,4.4
		c0.8,1.1,2.2,1.7,4.1,1.7c3,0,4.5-2.9,4.5-7.3v-8.4h-0.2c-1.8,3.4-5.3,5.1-9.3,5.1c-13.5,0-12.9-12.4-12.9-22.3
		c0-9.7,0.2-21.9,13-21.9c4.4,0,8.1,1.9,9.8,6h0.2V278H360.1z"/>
</g>
<path class="st1" d="M379.3,322H367V278h12.3V322z M379.3,268.8H367v-9.7h12.3V268.8z"/>
<g>
	<path class="st1" d="M398.3,282.5h0.2c2.4-3.9,5.7-5.3,10.4-5.3c5.8,0,11,3.5,11,9.6V322h-12.3v-30.3c0-3.9-0.7-7-4.6-7
		c-3.9,0-4.6,3-4.6,7V322h-12.3V278h12.3V282.5z"/>
	<path class="st1" d="M448.6,295.1c0-4.3,0.2-10.4-5.7-10.4c-5.7,0-5.6,6.6-5.6,10.4H448.6z M437.4,302c0,5.2,0.2,13.1,5.6,13.1
		c4.4,0,5.2-4.2,5.2-7.8h12.4c-0.2,4.8-1.7,8.7-4.7,11.4c-2.9,2.7-7.2,4.3-13,4.3c-15.8,0-17.9-9.7-17.9-23.4
		c0-12,1.7-22.3,17.9-22.3c16.5,0,18.4,10.7,17.9,24.8H437.4z"/>
	<path class="st1" d="M488.7,295.1c0-4.3,0.2-10.4-5.7-10.4c-5.7,0-5.6,6.6-5.6,10.4H488.7z M477.4,302c0,5.2,0.2,13.1,5.6,13.1
		c4.4,0,5.2-4.2,5.2-7.8h12.4c-0.2,4.8-1.7,8.7-4.7,11.4c-2.9,2.7-7.2,4.3-13,4.3c-15.8,0-17.9-9.7-17.9-23.4
		c0-12,1.7-22.3,17.9-22.3c16.5,0,18.4,10.7,17.9,24.8H477.4z"/>
	<path class="st1" d="M517.7,278v5.7h0.2c2.3-5,6.4-6.5,11.4-6.5v11c-10.8-0.7-11,5.6-11,9.9V322H506V278H517.7z"/>
</g>
<path class="st1" d="M545.3,322H533V278h12.3V322z M545.3,268.8H533v-9.7h12.3V268.8z"/>
<g>
	<path class="st1" d="M564.3,282.5h0.2c2.4-3.9,5.7-5.3,10.4-5.3c5.8,0,11,3.5,11,9.6V322h-12.3v-30.3c0-3.9-0.7-7-4.6-7
		s-4.6,3-4.6,7V322H552V278h12.3V282.5z"/>
	<path class="st1" d="M608.4,313.8c4.4,0,5-4.6,5-13.9c0-9.7-0.4-15.1-5-15.1c-4.6,0-5.4,3.2-5.4,16.6
		C603.1,305.5,602.5,313.8,608.4,313.8 M625.7,278v45.8c0,3,0.2,15.1-16.7,15.1c-9.1,0-17-2.3-17.2-13.1h12c0,1.8,0.3,3.4,1,4.4
		c0.8,1.1,2.2,1.7,4.1,1.7c3,0,4.5-2.9,4.5-7.3v-8.4h-0.2c-1.8,3.4-5.3,5.1-9.3,5.1c-13.5,0-12.9-12.4-12.9-22.3
		c0-9.7,0.2-21.9,13-21.9c4.4,0,8.1,1.9,9.8,6h0.2V278H625.7z"/>
</g>
<path class="st1" d="M419.1,358.6H419l-6.6,22.4h13.4L419.1,358.6z M415.9,353.7h6.8l13.7,41.9h-6l-3-10h-16.2l-3.1,10h-5.4
	L415.9,353.7z"/>
<g>
	<path class="st1" d="M454.6,378.9c0-8.5-2.4-9.6-5.9-9.6c-3,0-5.5,1.5-5.6,9.6H454.6z M443.2,382.5c0,8.2,2.2,9.8,5.9,9.8
		c3.3,0,4.9-2.6,5.1-5.6h5.2c-0.1,6.5-4.1,9.5-10.2,9.5c-6.2,0-11.2-1.9-11.2-14.8c0-8.6,1-15.7,11.2-15.7c8.4,0,10.5,4.6,10.5,14.3
		v2.5H443.2z"/>
	<path class="st1" d="M469,370.7h0.1c2-4.5,4.4-5,9.1-5v4.9c-0.9-0.1-1.7-0.3-2.6-0.3c-5.3,0-6.6,4-6.6,8v17.3h-4.8v-29.3h4.8V370.7
		z"/>
	<path class="st1" d="M497.2,379.4c0-8-2.5-9.8-6.2-9.8c-3.7,0-6.2,1.7-6.2,9.8c0,9.5,1.2,13,6.2,13
		C496,392.3,497.2,388.9,497.2,379.4 M479.9,381.4c0-8.6,1-15.7,11.2-15.7c10.2,0,11.2,7.1,11.2,15.7c0,13-4.9,14.8-11.2,14.8
		C484.9,396.2,479.9,394.3,479.9,381.4"/>
	<path class="st1" d="M515.5,396.2c-6.3,0-10.3-2.8-10.1-9.5h5.4c0,1.7,0.1,5.6,4.9,5.6c2.8,0,5.1-1.5,5.1-4.5
		c0-5.2-14.6-5.3-14.6-14.1c0-3.1,1.9-8,10.1-8c5.2,0,9.7,2.5,9.3,8.3h-5.3c0.1-3.1-1.6-4.7-4.6-4.7c-2.6,0-4.5,1.4-4.5,3.9
		c0,5.2,14.6,5.1,14.6,14C525.7,393.7,521.3,396.2,515.5,396.2"/>
	<path class="st1" d="M545.8,380.5c0-4.4,0-10.9-6-10.9c-5.9,0-5.3,8.1-5.3,12.6c0,3.9,0.2,10.1,5.5,10.1
		C545.1,392.3,545.8,388.3,545.8,380.5 M534.4,369.8h0.1c1.6-2.7,3.7-4.1,6.7-4.1c4.7,0,9.5,1.9,9.5,14.8c0,7.3-0.2,15.7-9.7,15.7
		c-2.8,0-4.8-1.2-6.4-3.5h-0.2v14.1h-4.8v-40.4h4.8V369.8z"/>
	<path class="st1" d="M559.2,386.9c0,2.8,1.4,5.4,4.6,5.4c2.9,0,6.5-1.8,6-11.3C565.3,381.1,559.2,380.7,559.2,386.9 M569.9,391.4
		h-0.1c-1.5,3.4-3.7,4.8-7.4,4.8c-6.2,0-8-4-8-9.6c0-8.9,8.7-9.3,15.4-9.1c0.1-3.9,0.2-8.1-4.9-8.1c-3.2,0-4.9,2.2-4.6,5.2h-5.2
		c0.2-6.6,3.7-8.8,9.9-8.8c7.6,0,9.5,3.9,9.5,8.8v14.1c0,2.3,0.2,4.7,0.6,7h-5.2V391.4z"/>
	<path class="st1" d="M594.8,375.7c0.1-4.8-2.3-6.1-4.1-6.1c-3.7,0-6.2,1.7-6.2,9.8c0,9.5,1.2,13,6.2,13c1.1,0,4.4-1.2,4.2-6.4h5
		c0.2,8.3-6,10.3-9.2,10.3c-6.2,0-11.2-1.9-11.2-14.8c0-8.6,1-15.7,11.2-15.7c5.9,0,9.3,3.4,9,10H594.8z"/>
	<path class="st1" d="M620.6,378.9c0-8.5-2.4-9.6-5.9-9.6c-3,0-5.5,1.5-5.6,9.6H620.6z M609.2,382.5c0,8.2,2.2,9.8,5.9,9.8
		c3.3,0,4.9-2.6,5.1-5.6h5.2c-0.1,6.5-4.1,9.5-10.2,9.5c-6.2,0-11.2-1.9-11.2-14.8c0-8.6,1-15.7,11.2-15.7c8.4,0,10.5,4.6,10.5,14.3
		v2.5H609.2z"/>
</g>
</svg>
